<svg id="Layer_1" data-name="Layer 1" xmlns="http://www.w3.org/2000/svg" viewBox="0 0 2180 1021.71"><defs><style>.cls-1{fill:#c7f47d;}.cls-2{fill:#a7d7b5;}.cls-3{fill:#b9e256;}.cls-4{fill:#71c635;}.cls-5{fill:#163300;}</style></defs><rect class="cls-1" x="496.31" y="336" width="105.9" height="349.71" rx="8.98"/><polygon class="cls-2" points="602.21 447.28 602.21 557.26 496.31 586.94 496.31 476.97 602.21 447.28"/><polygon class="cls-3" points="602.21 450.97 602.21 560.96 496.31 590.64 496.31 480.66 602.21 450.97"/><circle class="cls-4" cx="422.82" cy="401.32" r="55.41"/><circle class="cls-4" cx="678.14" cy="621.27" r="55.41"/><path class="cls-4" d="M367.62,586.84l.48-65A21.71,21.71,0,0,1,384,501.08l322-90.29a21.71,21.71,0,0,1,27.57,20.91v64.89a21.7,21.7,0,0,1-15.85,20.9l-322.5,90.42A21.71,21.71,0,0,1,367.62,586.84Z"/><path class="cls-5" d="M840.76,393.08h85.85c42.48,0,68.44,22.13,68.44,58.12,0,23.89-10.62,41-31,49.56,22.72,7.37,34.22,24.48,34.22,49.56,0,36.87-25.66,58.41-70.21,58.41H840.76Zm37.76,33.34v58.7h45.73c20.65,0,32.15-10.91,32.15-30.09,0-18.58-11.8-28.61-33-28.61Zm0,90.56v58.41h48.09c21.24,0,33-10.32,33-29.79,0-18.29-12.1-28.62-33-28.62Z"/><path class="cls-5" d="M1153.46,463V608.73h-33.34l-2.65-19.47c-8.85,13.86-27.73,23.3-47.2,23.3-33.63,0-53.4-22.71-53.4-58.41V463h36v78.47c0,27.73,10.92,38.94,31,38.94,22.71,0,33.63-13.28,33.63-41V463Z"/><path class="cls-5" d="M1170.27,536.45c0-45.43,26.55-77.88,70.51-77.88,20.35,0,38.35,8.56,47.49,23V389.25H1324V608.73h-33L1288.57,586c-8.85,16.82-27.73,26.55-49.86,26.55C1196.53,612.56,1170.27,581.59,1170.27,536.45ZM1288,535.27c0-26.25-16.23-44.54-41.3-44.54s-40.42,18.58-40.42,44.54,15.34,44.25,40.42,44.25S1288,561.53,1288,535.27Z"/><path class="cls-5" d="M1413.65,458.28c21.83,0,38.94,9.14,47.49,24.78l2.07-20.06h33.33V601.35c0,48.68-29.2,79.06-76.4,79.06-41.89,0-70.51-23.89-74.93-62.83h36c2.36,18.88,16.81,30.09,38.94,30.09,24.78,0,40.71-15.64,40.71-39.83V583.65c-9.15,13.57-27.14,22.13-48.09,22.13-41.3,0-68.44-31-68.44-73.16C1344.32,490.14,1372.05,458.28,1413.65,458.28Zm6.19,116.23c24.78,0,40.12-17.41,40.12-42.78,0-24.78-15-41.89-40.12-41.89-23.89,0-39.23,18-39.23,41.89C1380.61,556.22,1396.24,574.51,1419.84,574.51Z"/><path class="cls-5" d="M1516.31,535.86c0-45.72,29.79-77.29,72.57-77.29,43.65,0,71.39,29.21,71.39,74.64v10.91l-109.74.3c2.65,25.66,16.22,38.64,40.11,38.64,19.77,0,32.75-7.67,36.88-21.53h33.33c-6.19,31.86-32.74,51-70.79,51C1546.69,612.56,1516.31,581,1516.31,535.86Zm35.1-14.45h73.16c0-20.06-13.86-33.34-35.4-33.34C1567.93,488.07,1555,499.58,1551.41,521.41Z"/></svg>